<?xml version="1.0" standalone="no"?>
<!DOCTYPE svg PUBLIC "-//W3C//DTD SVG 20010904//EN"
 "http://www.w3.org/TR/2001/REC-SVG-20010904/DTD/svg10.dtd">
<svg version="1.0" xmlns="http://www.w3.org/2000/svg"
 width="794.000000pt" height="151.000000pt" viewBox="0 0 794.000000 151.000000"
 preserveAspectRatio="xMidYMid meet">

<g transform="translate(0.000000,151.000000) scale(0.100000,-0.100000)"
fill="#000000" stroke="none">
<path d="M890 965 l0 -545 55 0 55 0 0 545 0 545 -55 0 -55 0 0 -545z"/>
<path d="M7240 1340 l0 -160 -70 0 -70 0 0 -55 0 -54 68 -3 67 -3 3 -322 2
-323 55 0 55 0 0 325 0 325 70 0 70 0 0 55 0 55 -70 0 -70 0 0 160 0 160 -55
0 -55 0 0 -160z"/>
<path d="M5887 1418 c-46 -36 -16 -118 43 -118 38 0 74 44 65 80 -8 32 -31 50
-65 50 -14 0 -34 -6 -43 -12z"/>
<path d="M328 1190 c-207 -36 -356 -242 -321 -446 23 -136 101 -241 221 -297
62 -30 75 -32 172 -32 97 0 110 2 165 30 l60 30 3 83 3 83 -36 -35 c-109 -109
-269 -114 -383 -11 -150 135 -119 366 62 455 58 29 72 32 133 28 77 -4 122
-23 182 -74 l41 -36 0 76 c0 75 0 77 -32 96 -72 44 -185 65 -270 50z"/>
<path d="M1557 1190 c-108 -19 -229 -106 -276 -199 -55 -108 -62 -224 -19
-338 28 -77 119 -172 200 -209 57 -26 73 -29 168 -29 96 0 110 3 165 29 61 30
169 128 163 147 -2 6 -25 20 -50 31 l-47 20 -25 -29 c-36 -42 -118 -84 -179
-90 -115 -12 -234 56 -283 162 l-24 50 337 3 336 2 -5 83 c-7 100 -38 175 -99
242 -92 99 -231 147 -362 125z m164 -125 c25 -9 62 -29 82 -46 37 -30 97 -121
97 -146 0 -10 -62 -13 -274 -13 l-275 0 11 33 c47 142 214 221 359 172z"/>
<path d="M2538 1190 c-124 -21 -227 -100 -285 -218 -36 -71 -38 -81 -37 -166
0 -106 23 -176 80 -249 127 -163 373 -196 544 -73 l50 36 0 -50 0 -50 55 0 55
0 0 220 c0 196 -2 226 -21 283 -60 185 -251 300 -441 267z m152 -121 c63 -19
131 -78 164 -143 71 -139 16 -303 -127 -378 -60 -32 -174 -32 -238 0 -159 78
-211 268 -112 412 69 99 197 144 313 109z"/>
<path d="M3533 1190 c-93 -19 -181 -88 -225 -178 -22 -45 -23 -58 -26 -319
l-3 -273 55 0 56 0 0 238 c0 136 5 253 11 275 13 47 67 109 116 132 28 14 52
16 102 12 l66 -5 28 38 c15 21 27 41 27 45 0 25 -140 48 -207 35z"/>
<path d="M4207 1190 c-108 -19 -229 -106 -276 -198 -48 -94 -51 -129 -51 -575
l0 -418 58 3 57 3 5 258 5 259 23 -25 c68 -73 251 -108 367 -72 267 84 364
428 178 635 -93 103 -232 153 -366 130z m165 -126 c134 -45 214 -200 174 -337
-59 -201 -299 -272 -454 -132 -69 62 -95 126 -90 219 4 82 26 133 76 184 76
75 192 101 294 66z"/>
<path d="M5182 1189 c-119 -20 -236 -112 -290 -227 -24 -50 -27 -69 -27 -162
0 -93 3 -112 27 -162 37 -80 107 -152 187 -191 61 -30 72 -32 171 -32 93 0
112 3 162 27 195 91 284 318 201 515 -68 164 -252 263 -431 232z m193 -137
c55 -27 118 -98 140 -155 25 -67 17 -170 -19 -230 -113 -194 -383 -193 -489 2
-82 150 -11 337 150 397 53 20 167 13 218 -14z"/>
<path d="M6552 1190 c-104 -22 -195 -99 -232 -197 -18 -49 -20 -78 -20 -313
l0 -260 55 0 55 0 0 248 c0 248 0 248 26 301 35 70 86 103 164 109 98 7 177
-45 208 -137 8 -22 12 -118 12 -277 l0 -244 56 0 55 0 -3 278 -3 277 -29 53
c-17 29 -46 67 -65 84 -73 64 -188 96 -279 78z"/>
<path d="M5870 800 l0 -380 60 0 60 0 0 380 0 380 -60 0 -60 0 0 -380z"/>
<path d="M7666 826 c-91 -34 -141 -104 -140 -196 2 -122 83 -202 204 -202 122
0 203 81 203 202 0 58 -25 121 -59 151 -56 49 -145 68 -208 45z m99 -110 c92
-39 65 -176 -35 -176 -98 0 -127 136 -37 175 40 18 32 17 72 1z"/>
</g>
</svg>
