<svg xmlns="http://www.w3.org/2000/svg" xmlns:xlink="http://www.w3.org/1999/xlink" viewBox="0 0 495.61 178.34" width="128" height="46" style="enable-background:new 0 0 495.61 178.34;" xml:space="preserve">
<defs>
<linearGradient id="contactlogo-desktop-c3d9a09b-aabe-48dc-b286-c6c34f841cab" x1="109.8" y1="9" x2="379.62" y2="278.83" gradientUnits="userSpaceOnUse"><stop offset="0" stop-color="#672d86"></stop><stop offset="0.3" stop-color="#ef373e"></stop><stop offset="0.4" stop-color="#ef373e"></stop><stop offset="1" stop-color="#f68d76"></stop></linearGradient></defs><g id="Layer_2" data-name="Layer 2"><g id="Layer_1-2" data-name="Layer 1">
<path fill="url(#contactlogo-desktop-c3d9a09b-aabe-48dc-b286-c6c34f841cab)" d="M414.48,51.91C336.1-7.69,258.36-1.6,239,2.3,212.29-2,135.65-6.59,68,52,37.2,78.6,17.65,104.91,1.8,144.29a24.69,24.69,0,0,0,10.86,31C24.12,182,41.56,177.57,47.54,163c22.91-55.74,60.94-98.15,117.14-126.72,48.82-24.82,79.4-23.14,122.2-9.27-42.64-4-81.4,4.91-118.34,24.89-35.5,19.2-76,55.46-96.48,110.69a.28.28,0,0,0,.52.23C90,124.52,128,76.2,192.11,51.91c35-13.25,86.14-20.83,145.74.53h0C387.2,88.05,406.8,131.9,416,160.64c4.1,12.82,18.13,20.63,31,16.63,16.52-5.16,20.91-23.45,14.8-34.64-6.85-12.58-38.73-75.21-118.88-104h0c-15-10.59-36.16-20.87-52.79-26.34h0C325.93,15.38,367.36,27.62,404,51.89c42.48,28.15,72.38,66.39,91.11,111a.27.27,0,0,0,.49-.22C479.87,119.29,450.14,79,414.48,51.91ZM33.15,157.38a9.31,9.31,0,0,1-12.23,4.9c-3.73-1.54-7.25-6.31-5.25-11.6,26.26-69.55,90-122.89,161.91-133.34h0C126.35,34.31,65.92,80.37,33.15,157.38ZM388.53,79.75a199.26,199.26,0,0,1,59.58,69.94c2.22,4.28.14,11.2-5.71,12.9-6.31,1.84-10.37-2.31-11.68-6-3-8.44-12.82-41.65-42.19-76.88ZM172.44,113.2a18.66,18.66,0,1,0,18.66,18.66A18.65,18.65,0,0,0,172.44,113.2Zm0,28.39a9.73,9.73,0,1,1,9.73-9.73A9.73,9.73,0,0,1,172.44,141.59Zm129.91-27.44h-7.64a.85.85,0,0,0-.84.85v1.91a17,17,0,0,0-10.57-3.7c-9.78,0-17.71,8.35-17.71,18.65s7.93,18.66,17.71,18.66a17.08,17.08,0,0,0,10.57-3.7v1.92a.85.85,0,0,0,.84.85h7.64a.84.84,0,0,0,.84-.85V115A.84.84,0,0,0,302.35,114.15Zm-17.93,27.44a9.73,9.73,0,1,1,9.73-9.76v.07A9.73,9.73,0,0,1,284.42,141.59ZM216.77,113.2a14.28,14.28,0,0,0-9.36,3.74V115a.85.85,0,0,0-.85-.85h-7.85a.85.85,0,0,0-.84.85v33.75a.84.84,0,0,0,.84.84h7.85a.84.84,0,0,0,.85-.84V129.12a7.21,7.21,0,0,1,8-6.92,7.49,7.49,0,0,1,6.41,7.57v19a.84.84,0,0,0,.84.84h7.85a.84.84,0,0,0,.85-.84V128.26C231.37,120.23,224.8,113.07,216.77,113.2Zm42,11.19,3.27-6.76a.67.67,0,0,0-.6-1H248.21V106a.85.85,0,0,0-.84-.85h-7.86a.85.85,0,0,0-.84.85v30.37c0,12.2,7.69,14.15,13.28,14.15a18.54,18.54,0,0,0,10-3.08.88.88,0,0,0,.3-1.11l-3.32-6.73a.68.68,0,0,0-1-.26c-5.92,3.53-9.76,2.22-9.76-3.07v-11.4h9.84A.84.84,0,0,0,258.81,124.39Zm75.94,15a9.73,9.73,0,1,1,0-15.07.63.63,0,0,0,1-.19l3.35-6.8a.87.87,0,0,0-.29-1.1,18.65,18.65,0,1,0,0,31.25.87.87,0,0,0,.29-1.1l-3.36-6.8A.63.63,0,0,0,334.75,139.39Zm-188.53,0a9.72,9.72,0,1,1-6.16-17.26,9.76,9.76,0,0,1,6.16,2.19.64.64,0,0,0,1-.19l3.35-6.8a.87.87,0,0,0-.29-1.1,18.65,18.65,0,1,0,0,31.25.86.86,0,0,0,.28-1.1l-3.35-6.8A.63.63,0,0,0,146.22,139.39Zm218.72-15,3.27-6.76a.67.67,0,0,0-.61-1H354.34V106a.85.85,0,0,0-.85-.85h-7.85a.85.85,0,0,0-.85.85v30.37c0,12.2,7.7,14.15,13.28,14.15a18.49,18.49,0,0,0,10-3.08.87.87,0,0,0,.31-1.11l-3.32-6.73a.68.68,0,0,0-1-.26c-5.92,3.53-9.76,2.22-9.76-3.07v-11.4h9.84A.84.84,0,0,0,364.94,124.39Z"></path></g></g></svg>
